<?xml version="1.0" encoding="UTF-8"?>
<svg id="_レイヤー_2" data-name="レイヤー_2" xmlns="http://www.w3.org/2000/svg" viewBox="0 0 771 253">
  <defs>
    <style>
      .cls-1 {
        fill: none;
        stroke: #fff;
        stroke-miterlimit: 10;
      }
    </style>
  </defs>
  <path id="A_hole" class="cls-1" d="M73.01,94.9l-41.82,23.93v-48.49l41.82-23.93v48.49Z"/>
  <path id="outer" class="cls-1" d="M105.44.54l105.16,62.88v31.49l-36.97-22.04v105.8l36.97-22.1v33.22l-105.16,63.08-32.43-19.42v-110.21l-41.68,23.93v60.97L.28,189.79V63.41C2.1,63.41,105.44.54,105.44.54"/>
  <polygon id="center_hole" class="cls-1" points="105 32 141.51 53.97 142.72 196.92 105 219 105 32"/>
  <g>
    <path class="cls-1" d="M353.64,70.88h-18.91v133.96h-33.84V70.88h-18.91v-20.09h71.65v20.09Z"/>
    <path class="cls-1" d="M431.95,204.83h-27.07v-4.83c-2.29,4.37-8.85,6.55-19.66,6.55-16.69,0-25.03-6.52-25.03-19.55v-25.03c0-5.59,2.02-10.46,6.07-14.61,4.04-4.15,12.19-9.35,24.44-15.58,7.09-3.58,10.63-6.45,10.63-8.59v-18.48c0-4.08-1.76-6.12-5.26-6.12-4.01,0-6.02,4.98-6.02,14.93,0,1.79.11,4.44.32,7.95.29,3.51.43,6.16.43,7.95h-29.54v-24.92c0-16.83,12.17-25.24,36.52-25.24,22.77,0,34.16,8.77,34.16,26.32v99.26ZM401.34,181.52v-32.12c-7.02,1.72-10.53,4.87-10.53,9.45v22.67c0,3.8,1.83,5.69,5.48,5.69,3.37,0,5.05-1.9,5.05-5.69Z"/>
    <path class="cls-1" d="M510.69,135.33h-30.62v-30.62c0-4.08-1.72-6.12-5.16-6.12s-5.26,2.04-5.26,6.12v76.38c0,4.23,1.75,6.34,5.26,6.34s5.16-2.11,5.16-6.34v-30.19h30.62v30.4c0,16.83-11.78,25.24-35.34,25.24s-36.31-8.77-36.31-26.32v-74.66c0-17.54,12.1-26.32,36.31-26.32s35.34,8.42,35.34,25.24v30.83Z"/>
    <path class="cls-1" d="M578.05,204.83h-19.34c-13.82,0-22.09-2.08-24.81-6.23-2.72-4.15-4.08-12.14-4.08-23.96v-76.05h-13.64v-18.48h13.64v-25.14h30.62v25.14h16.54v18.48h-16.54v75.84c0,3.65,1.09,6.11,3.28,7.36,2.18,1.25,6.96,1.88,14.34,1.88v21.16Z"/>
    <path class="cls-1" d="M613.93,73.24h-30.62v-22.45h30.62v22.45ZM613.93,204.83h-30.62v-124.72h30.62v124.72Z"/>
    <path class="cls-1" d="M691.91,135.33h-30.62v-30.62c0-4.08-1.72-6.12-5.16-6.12s-5.26,2.04-5.26,6.12v76.38c0,4.23,1.75,6.34,5.26,6.34s5.16-2.11,5.16-6.34v-30.19h30.62v30.4c0,16.83-11.78,25.24-35.34,25.24s-36.31-8.77-36.31-26.32v-74.66c0-17.54,12.1-26.32,36.31-26.32s35.34,8.42,35.34,25.24v30.83Z"/>
    <path class="cls-1" d="M698.47,154.67h30.62v26.43c0,4.23,1.72,6.34,5.16,6.34s5.16-4.04,5.16-12.14c0-10.53-2.11-17.33-6.34-20.41-15.97-8.38-25.6-14.23-28.9-17.56-3.29-3.33-4.94-8.33-4.94-14.99v-16.76c0-17.54,11.89-26.32,35.66-26.32s34.7,8.42,34.7,25.24v24.6h-29.86l.64-14.93c0-10.38-1.9-15.58-5.69-15.58s-5.69,3.26-5.69,9.78.84,11.82,2.52,15.25c1.68,3.44,11.05,9.35,28.09,17.72,7.09,5.09,10.63,11.82,10.63,20.2v18.69c0,17.55-12.08,26.32-36.25,26.32s-35.5-8.41-35.5-25.24v-26.64Z"/>
  </g>
</svg>